<svg width="20" height="20" viewBox="0 0 20 20" fill="none" xmlns="http://www.w3.org/2000/svg">
<g clip-path="url(#clip0_38_381)">
<path d="M16.5516 14.2423L16.5516 14.2423L15.996 14.2278C15.996 14.2278 15.996 14.2278 15.996 14.2278C14.6368 15.5174 13.0635 16.659 11.9918 17.1389L11.9918 17.1389C11.0173 17.5756 9.95555 17.6935 8.92951 17.4897C9.3664 17.2108 9.76409 16.8759 10.1124 16.495C12.4911 16.1769 14.1909 14.4681 14.2641 14.3935L14.2641 14.3935C14.4161 14.2386 14.4138 13.9898 14.2589 13.8378L14.2589 13.8378C14.104 13.6858 13.8552 13.6881 13.7032 13.843L13.7022 13.844L13.699 13.8472L13.6871 13.8589C13.6767 13.8691 13.6614 13.8838 13.6414 13.9025C13.6015 13.9399 13.5429 13.9935 13.4671 14.0589C13.3155 14.1897 13.0953 14.3679 12.8184 14.5599C12.3146 14.9092 11.6259 15.3021 10.8232 15.5401C11.3499 14.6598 11.653 13.631 11.653 12.5328C11.653 12.3191 11.6412 12.081 11.6181 11.825L11.6181 11.825C11.5985 11.6085 11.407 11.4503 11.1917 11.4689L11.1913 11.469C10.9752 11.4885 10.8158 11.6795 10.8353 11.8957C10.8564 12.1295 10.8671 12.3438 10.8671 12.5328C10.8671 15.3396 8.58336 17.6234 5.77652 17.6234C2.9696 17.6233 0.685938 15.3396 0.685938 12.5327C0.685938 10.991 1.34579 8.35895 2.25882 6.28061C2.8096 5.02697 3.4099 4.04655 4.01568 3.38127C4.62332 2.71395 5.2241 2.37671 5.77648 2.37671C6.27948 2.37671 6.76349 2.64453 7.20378 3.04351C7.64284 3.44137 8.02703 3.95949 8.3287 4.43617L8.4132 4.38269C8.49977 4.51945 8.68078 4.56015 8.81742 4.47355L8.8709 4.55805C8.87092 4.55804 8.87094 4.55803 8.87095 4.55801C9.05429 4.44194 9.10887 4.19923 8.99282 4.01585C7.98906 2.42985 6.90921 1.59073 5.77652 1.59073C4.93891 1.59073 4.12134 2.05855 3.34588 2.94783L3.42125 3.01355L3.34588 2.94783C2.70007 3.68844 2.09285 4.70444 1.53931 5.96442C0.575761 8.15766 -0.1 10.8562 -0.1 12.5327C-0.1 15.7731 2.5361 18.4093 5.77652 18.4093C6.52355 18.4093 7.23858 18.2691 7.8967 18.0136C8.55234 18.2532 9.23304 18.373 9.91277 18.373C10.7302 18.373 11.5455 18.2001 12.3132 17.8561C13.4867 17.3306 15.1038 16.1576 16.537 14.7979L16.537 14.7979C16.6944 14.6485 16.7009 14.3998 16.5516 14.2423Z" fill="white" stroke="white" stroke-width="0.2"/>
<path d="M9.63288 5.15455L9.63288 5.15456C9.82214 5.53088 10.0045 5.93243 10.1772 6.35019C12.0315 5.98608 14.0725 5.85422 15.7037 5.9989C17.9101 6.19455 19.3839 6.87724 19.8955 8.01911M9.63288 5.15455L17.414 13.9162L17.341 13.8478L17.414 13.9162M9.63288 5.15455C9.53535 4.96069 9.29926 4.88248 9.10528 4.98002L9.63288 5.15455ZM19.8955 8.01911L19.8042 8.06L19.8955 8.0191C19.8955 8.0191 19.8955 8.01911 19.8955 8.01911ZM19.8955 8.01911C20.3319 8.99288 20.016 10.136 19.4522 11.1868C18.8859 12.2422 18.0551 13.2318 17.414 13.9162M17.414 13.9162C17.3366 13.9987 17.2318 14.0405 17.1271 14.0405M17.414 13.9162L17.1271 14.0405M10.7646 10.6934L10.6663 10.7117C10.3408 8.96698 9.69158 7.02055 8.93073 5.50762M10.7646 10.6934L9.10525 4.98004C8.91133 5.07751 8.83323 5.31376 8.93073 5.50762M10.7646 10.6934L10.6663 10.7117C10.7016 10.9008 10.8667 11.0327 11.0523 11.0327M10.7646 10.6934L11.0523 11.0327M8.93073 5.50762L9.02007 5.46269L8.93073 5.50762ZM11.439 10.5676L11.439 10.5676C11.4787 10.7809 11.3381 10.9861 11.1247 11.0259L11.439 10.5676ZM11.439 10.5676C11.3437 10.057 11.2217 9.53015 11.0781 9.00158C12.6152 8.46686 13.9586 8.32407 14.925 8.31658C15.4173 8.31277 15.8116 8.34407 16.0837 8.37653C16.2197 8.39275 16.3252 8.40926 16.397 8.4218C16.4329 8.42807 16.4604 8.43334 16.479 8.4371L16.5004 8.44151L16.506 8.44272C16.507 8.44293 16.5075 8.44306 16.5078 8.44311C16.7189 8.49277 16.9303 8.3617 16.9801 8.15067L16.9801 8.15067M11.439 10.5676L16.9801 8.15067M16.9801 8.15067C17.0298 7.93941 16.8989 7.72786 16.6877 7.67807M16.9801 8.15067L19.1783 8.34042M19.1783 8.34042L19.1783 8.34042C18.9447 7.81908 18.4134 7.45825 17.7511 7.21213C17.0912 6.96692 16.3195 6.84247 15.6343 6.78172C14.1171 6.64721 12.2169 6.76381 10.468 7.09437C10.6075 7.47159 10.7383 7.85731 10.8586 8.24582C14.1575 7.10713 16.5727 7.6509 16.6877 7.67807M19.1783 8.34042C19.4145 8.86752 19.3394 9.5862 18.9424 10.4537C18.5466 11.3184 17.8384 12.3135 16.8404 13.3789C16.692 13.5373 16.7002 13.786 16.8585 13.9343L16.8585 13.9344M19.1783 8.34042L16.8585 13.9344M16.6877 7.67807L16.6647 7.77539L16.6876 7.67805C16.6877 7.67806 16.6877 7.67806 16.6877 7.67807ZM16.8585 13.9344C16.9343 14.0053 17.031 14.0405 17.1271 14.0405M16.8585 13.9344L17.1271 14.0405M11.0523 11.0327C11.0761 11.0327 11.1003 11.0305 11.1247 11.026L11.0523 11.0327Z" fill="white" stroke="white" stroke-width="0.2"/>
<path d="M15.3999 10.7178L15.3999 10.7178C15.5947 10.622 15.8302 10.7023 15.9259 10.8972M15.3999 10.7178L11.8114 12.9192C11.8798 13.0584 12.0195 13.139 12.1644 13.139C12.2227 13.139 12.2819 13.1259 12.3374 13.0986L12.2933 13.0088L12.3375 13.0986L15.7466 11.4232L15.7466 11.4232C15.9413 11.3274 16.0216 11.0919 15.9259 10.8972M15.3999 10.7178L11.9908 12.3932L11.9908 12.3932M15.3999 10.7178L11.9908 12.3932M15.9259 10.8972L15.8362 10.9413L15.9259 10.8972C15.9259 10.8972 15.9259 10.8972 15.9259 10.8972ZM11.9908 12.3932C11.7961 12.4889 11.7157 12.7244 11.8114 12.9192L11.9908 12.3932Z" fill="white" stroke="white" stroke-width="0.2"/>
<path d="M4.70418 4.30508L4.70419 4.30508C4.87642 4.43673 4.90951 4.68295 4.77821 4.85538M4.70418 4.30508L2.98323 14.457L3.00279 14.5551C3.21561 14.5126 3.35378 14.3057 3.31134 14.0928C2.71463 11.0998 3.14725 8.74565 3.61386 7.29978C3.86713 6.51502 4.15776 5.90447 4.38541 5.48969C4.49923 5.28231 4.59728 5.12393 4.66699 5.01723C4.70184 4.96389 4.72961 4.92348 4.74871 4.89633C4.76727 4.86996 4.77757 4.85623 4.77821 4.85538M4.70418 4.30508C4.53174 4.1733 4.28513 4.20632 4.15336 4.37864L4.15335 4.37865C4.11918 4.42335 3.42253 5.34758 2.87513 7.03C2.37293 8.57341 1.9086 11.0764 2.54055 14.2465L2.63857 14.227L2.54055 14.2466C2.57783 14.4335 2.742 14.5627 2.92565 14.5627L4.70418 4.30508ZM4.77821 4.85538C4.77818 4.85542 4.77815 4.85546 4.77812 4.8555L4.69858 4.79489L4.77824 4.85534L4.77823 4.85535C4.77823 4.85535 4.77822 4.85537 4.77821 4.85538Z" fill="white" stroke="white" stroke-width="0.2"/>
<path d="M8.78162 9.11398L8.78166 9.11396C8.98353 9.03515 9.21127 9.13445 9.29045 9.33644C9.29046 9.33646 9.29046 9.33648 9.29047 9.33649L9.19736 9.37297C9.21404 9.41547 9.60568 10.429 9.66346 11.7824L8.78162 9.11398ZM8.78162 9.11398C8.57959 9.19294 8.47981 9.42069 8.55849 9.62272M8.78162 9.11398L7.54193 15.781M7.54193 15.781L7.54193 15.781C8.5588 14.7886 9.04461 13.4626 8.97885 11.8291C8.95384 11.2078 8.84938 10.6575 8.75059 10.2612C8.70123 10.0632 8.65338 9.90401 8.61775 9.79402C8.59993 9.73903 8.58518 9.69637 8.57484 9.66734L8.56281 9.63419L8.55959 9.62561C8.55883 9.6236 8.55847 9.62265 8.55849 9.62272M7.54193 15.781C7.38663 15.9326 7.38358 16.1813 7.53517 16.3367L7.53518 16.3367M7.54193 15.781L7.53518 16.3367M8.55849 9.62272L8.6517 9.58649L8.55852 9.6228C8.55851 9.62277 8.5585 9.62274 8.55849 9.62272ZM7.53518 16.3367C7.6122 16.4156 7.71443 16.4552 7.81646 16.4552M7.53518 16.3367L7.81646 16.4552M7.81646 16.4552C7.9153 16.4552 8.01451 16.418 8.09092 16.3434L7.81646 16.4552Z" fill="white" stroke="white" stroke-width="0.2"/>
<path d="M6.78026 6.39033L6.78026 6.39033L6.77951 6.39036C6.56263 6.39806 6.39304 6.58014 6.40074 6.79704L6.40074 6.79705L6.5357 10.5933L6.5357 10.5933C6.5433 10.8054 6.71759 10.9723 6.92825 10.9723L6.94218 10.972L6.94239 10.972C7.15927 10.9643 7.32886 10.7822 7.32116 10.5653L7.32116 10.5653L7.1862 6.76913C7.1862 6.76913 7.1862 6.76912 7.1862 6.76912C7.17847 6.55157 6.99623 6.38429 6.78026 6.39033Z" fill="white" stroke="white" stroke-width="0.2"/>
<path d="M3.80305 15.3266L3.80308 15.3267C3.80301 15.3266 3.80355 15.3272 3.80482 15.3285L3.80998 15.3341L3.82947 15.3545C3.8464 15.3721 3.87103 15.3971 3.90248 15.4277C3.96541 15.4889 4.05537 15.5722 4.16524 15.6626C4.3862 15.8442 4.68244 16.05 4.99788 16.1647C5.20179 16.2389 5.30703 16.4644 5.23277 16.6683M3.80305 15.3266L4.76334 16.8093L4.72906 16.9032C4.77338 16.9194 4.81879 16.927 4.86349 16.927C5.02388 16.927 5.17466 16.8281 5.23277 16.6683M3.80305 15.3266C3.65757 15.166 3.40923 15.1533 3.24824 15.2988L3.80305 15.3266ZM5.23277 16.6683L5.1388 16.6341L5.23278 16.6683C5.23278 16.6683 5.23277 16.6683 5.23277 16.6683ZM3.22016 15.8538C3.22015 15.8538 3.22014 15.8538 3.22012 15.8538L3.29435 15.7868L3.22016 15.8538ZM3.22016 15.8538C3.07466 15.6928 3.08723 15.4443 3.24823 15.2988L3.22016 15.8538Z" fill="white" stroke="white" stroke-width="0.2"/>
<path d="M7.09375 11.3551C6.87673 11.3551 6.70078 11.531 6.70078 11.748V11.7746C6.70078 11.9917 6.87673 12.1676 7.09375 12.1676C7.31077 12.1676 7.48672 11.9917 7.48672 11.7746V11.748C7.48672 11.531 7.31077 11.3551 7.09375 11.3551Z" fill="white" stroke="white" stroke-width="0.2"/>
<path d="M6.37207 12.127C6.15505 12.127 5.9791 12.3029 5.9791 12.5199V12.5465C5.9791 12.7636 6.15505 12.9395 6.37207 12.9395C6.58909 12.9395 6.76504 12.7636 6.76504 12.5465V12.5199C6.76504 12.3029 6.58914 12.127 6.37207 12.127Z" fill="white" stroke="white" stroke-width="0.2"/>
<path d="M7.30371 13.4392C7.08669 13.4392 6.91074 13.6151 6.91074 13.8322V13.8588C6.91074 14.0758 7.08669 14.2517 7.30371 14.2517C7.52073 14.2517 7.69668 14.0758 7.69668 13.8588V13.8322C7.69668 13.6151 7.52073 13.4392 7.30371 13.4392Z" fill="white" stroke="white" stroke-width="0.2"/>
</g>
<defs>
<clipPath id="clip0_38_381">
<rect width="20" height="20" fill="white"/>
</clipPath>
</defs>
</svg>
