<svg width="24" height="24" viewBox="0 0 24 24" fill="none" xmlns="http://www.w3.org/2000/svg">
<g clip-path="url(#clip0_91_3253)">
<mask id="path-1-outside-1_91_3253" maskUnits="userSpaceOnUse" x="-1" y="1.0289" width="22" height="22" fill="black">
<rect fill="white" x="-1" y="1.0289" width="22" height="22"/>
<path d="M19.7748 17.1734C19.6411 17.0325 19.4186 17.0267 19.2778 17.1604C17.6419 18.7125 15.7427 20.0926 14.4392 20.6762C13.1542 21.2521 11.7443 21.3749 10.3991 21.0398C11.0267 20.6756 11.5923 20.216 12.0757 19.6807C12.0758 19.6807 12.0759 19.6807 12.0759 19.6807C14.9105 19.3197 16.946 17.2751 17.0313 17.1882C17.1673 17.0496 17.1652 16.827 17.0266 16.691C16.888 16.555 16.6655 16.5571 16.5295 16.6957C16.5122 16.7133 14.9384 18.2945 12.7227 18.8447C13.4434 17.7516 13.8636 16.4437 13.8636 15.0393C13.8636 14.7872 13.8496 14.5052 13.8222 14.2008C13.8047 14.0074 13.6335 13.8655 13.4404 13.8823C13.2471 13.8998 13.1044 14.0707 13.1219 14.2641C13.1475 14.5474 13.1605 14.8082 13.1605 15.0393C13.1605 18.4738 10.3663 21.268 6.93183 21.268C3.49725 21.268 0.703125 18.4738 0.703125 15.0393C0.703125 13.1668 1.50122 9.99128 2.60072 7.48848C3.92873 4.46574 5.50734 2.73207 6.93178 2.73207C8.22492 2.73207 9.36619 4.10631 10.0958 5.25925C10.1997 5.42335 10.4169 5.4722 10.5809 5.36828C10.745 5.26445 10.7938 5.04728 10.69 4.88321C9.49134 2.98928 8.22684 2.0289 6.93183 2.0289C5.97487 2.0289 5.02397 2.56299 4.1055 3.61628C3.34106 4.49293 2.61825 5.70053 1.95703 7.20559C0.80475 9.82843 0 13.0497 0 15.0393C0 18.8615 3.10959 21.9711 6.93183 21.9711C7.82911 21.9711 8.68702 21.7997 9.47475 21.488C10.2615 21.7811 11.0791 21.9276 11.8953 21.9276C12.8592 21.9276 13.8209 21.7238 14.7267 21.3179C16.1177 20.695 18.047 19.2974 19.7618 17.6704C19.9026 17.5368 19.9085 17.3143 19.7748 17.1734Z"/>
</mask>
<path d="M19.7748 17.1734C19.6411 17.0325 19.4186 17.0267 19.2778 17.1604C17.6419 18.7125 15.7427 20.0926 14.4392 20.6762C13.1542 21.2521 11.7443 21.3749 10.3991 21.0398C11.0267 20.6756 11.5923 20.216 12.0757 19.6807C12.0758 19.6807 12.0759 19.6807 12.0759 19.6807C14.9105 19.3197 16.946 17.2751 17.0313 17.1882C17.1673 17.0496 17.1652 16.827 17.0266 16.691C16.888 16.555 16.6655 16.5571 16.5295 16.6957C16.5122 16.7133 14.9384 18.2945 12.7227 18.8447C13.4434 17.7516 13.8636 16.4437 13.8636 15.0393C13.8636 14.7872 13.8496 14.5052 13.8222 14.2008C13.8047 14.0074 13.6335 13.8655 13.4404 13.8823C13.2471 13.8998 13.1044 14.0707 13.1219 14.2641C13.1475 14.5474 13.1605 14.8082 13.1605 15.0393C13.1605 18.4738 10.3663 21.268 6.93183 21.268C3.49725 21.268 0.703125 18.4738 0.703125 15.0393C0.703125 13.1668 1.50122 9.99128 2.60072 7.48848C3.92873 4.46574 5.50734 2.73207 6.93178 2.73207C8.22492 2.73207 9.36619 4.10631 10.0958 5.25925C10.1997 5.42335 10.4169 5.4722 10.5809 5.36828C10.745 5.26445 10.7938 5.04728 10.69 4.88321C9.49134 2.98928 8.22684 2.0289 6.93183 2.0289C5.97487 2.0289 5.02397 2.56299 4.1055 3.61628C3.34106 4.49293 2.61825 5.70053 1.95703 7.20559C0.80475 9.82843 0 13.0497 0 15.0393C0 18.8615 3.10959 21.9711 6.93183 21.9711C7.82911 21.9711 8.68702 21.7997 9.47475 21.488C10.2615 21.7811 11.0791 21.9276 11.8953 21.9276C12.8592 21.9276 13.8209 21.7238 14.7267 21.3179C16.1177 20.695 18.047 19.2974 19.7618 17.6704C19.9026 17.5368 19.9085 17.3143 19.7748 17.1734Z" fill="#84BE51"/>
<path d="M19.7748 17.1734C19.6411 17.0325 19.4186 17.0267 19.2778 17.1604C17.6419 18.7125 15.7427 20.0926 14.4392 20.6762C13.1542 21.2521 11.7443 21.3749 10.3991 21.0398C11.0267 20.6756 11.5923 20.216 12.0757 19.6807C12.0758 19.6807 12.0759 19.6807 12.0759 19.6807C14.9105 19.3197 16.946 17.2751 17.0313 17.1882C17.1673 17.0496 17.1652 16.827 17.0266 16.691C16.888 16.555 16.6655 16.5571 16.5295 16.6957C16.5122 16.7133 14.9384 18.2945 12.7227 18.8447C13.4434 17.7516 13.8636 16.4437 13.8636 15.0393C13.8636 14.7872 13.8496 14.5052 13.8222 14.2008C13.8047 14.0074 13.6335 13.8655 13.4404 13.8823C13.2471 13.8998 13.1044 14.0707 13.1219 14.2641C13.1475 14.5474 13.1605 14.8082 13.1605 15.0393C13.1605 18.4738 10.3663 21.268 6.93183 21.268C3.49725 21.268 0.703125 18.4738 0.703125 15.0393C0.703125 13.1668 1.50122 9.99128 2.60072 7.48848C3.92873 4.46574 5.50734 2.73207 6.93178 2.73207C8.22492 2.73207 9.36619 4.10631 10.0958 5.25925C10.1997 5.42335 10.4169 5.4722 10.5809 5.36828C10.745 5.26445 10.7938 5.04728 10.69 4.88321C9.49134 2.98928 8.22684 2.0289 6.93183 2.0289C5.97487 2.0289 5.02397 2.56299 4.1055 3.61628C3.34106 4.49293 2.61825 5.70053 1.95703 7.20559C0.80475 9.82843 0 13.0497 0 15.0393C0 18.8615 3.10959 21.9711 6.93183 21.9711C7.82911 21.9711 8.68702 21.7997 9.47475 21.488C10.2615 21.7811 11.0791 21.9276 11.8953 21.9276C12.8592 21.9276 13.8209 21.7238 14.7267 21.3179C16.1177 20.695 18.047 19.2974 19.7618 17.6704C19.9026 17.5368 19.9085 17.3143 19.7748 17.1734Z" stroke="#84BE51" stroke-width="0.4" mask="url(#path-1-outside-1_91_3253)"/>
<mask id="path-2-outside-2_91_3253" maskUnits="userSpaceOnUse" x="9.78711" y="5.04565" width="15" height="12" fill="black">
<rect fill="white" x="9.78711" y="5.04565" width="15" height="12"/>
<path d="M23.7657 9.67198C23.1807 8.36633 21.4755 7.55239 18.8344 7.3182C16.8616 7.14322 14.3811 7.30751 12.1397 7.75714C11.9225 7.22548 11.6922 6.7153 11.4528 6.23937C11.3656 6.06589 11.1543 5.99595 10.9808 6.08323C10.8073 6.17042 10.7374 6.38178 10.8247 6.55522C11.743 8.38128 12.5256 10.7278 12.9181 12.832C12.9497 13.0011 13.0973 13.1192 13.2633 13.1192C13.2847 13.1192 13.3064 13.1172 13.3282 13.1132C13.5191 13.0775 13.6449 12.8939 13.6094 12.7031C13.4893 12.0593 13.3334 11.3933 13.1491 10.7258C16.955 9.37123 19.8086 10.0083 19.837 10.0148C20.0259 10.0595 20.2153 9.94222 20.2598 9.75327C20.3044 9.56427 20.1872 9.37498 19.9982 9.33045C19.8728 9.30083 16.9432 8.63881 12.9527 10.0494C12.7852 9.4993 12.5997 8.95311 12.4002 8.42216C14.546 8.00333 16.8984 7.85239 18.7723 8.01851C20.4266 8.16519 22.5244 8.621 23.1241 9.95942C23.7326 11.3173 22.702 13.5689 20.2966 16.1367C20.1639 16.2784 20.1712 16.5009 20.3129 16.6336C20.3807 16.6971 20.467 16.7286 20.5531 16.7286C20.6469 16.7286 20.7406 16.6912 20.8098 16.6174C22.3428 14.9809 24.7653 11.9025 23.7657 9.67198Z"/>
</mask>
<path d="M23.7657 9.67198C23.1807 8.36633 21.4755 7.55239 18.8344 7.3182C16.8616 7.14322 14.3811 7.30751 12.1397 7.75714C11.9225 7.22548 11.6922 6.7153 11.4528 6.23937C11.3656 6.06589 11.1543 5.99595 10.9808 6.08323C10.8073 6.17042 10.7374 6.38178 10.8247 6.55522C11.743 8.38128 12.5256 10.7278 12.9181 12.832C12.9497 13.0011 13.0973 13.1192 13.2633 13.1192C13.2847 13.1192 13.3064 13.1172 13.3282 13.1132C13.5191 13.0775 13.6449 12.8939 13.6094 12.7031C13.4893 12.0593 13.3334 11.3933 13.1491 10.7258C16.955 9.37123 19.8086 10.0083 19.837 10.0148C20.0259 10.0595 20.2153 9.94222 20.2598 9.75327C20.3044 9.56427 20.1872 9.37498 19.9982 9.33045C19.8728 9.30083 16.9432 8.63881 12.9527 10.0494C12.7852 9.4993 12.5997 8.95311 12.4002 8.42216C14.546 8.00333 16.8984 7.85239 18.7723 8.01851C20.4266 8.16519 22.5244 8.621 23.1241 9.95942C23.7326 11.3173 22.702 13.5689 20.2966 16.1367C20.1639 16.2784 20.1712 16.5009 20.3129 16.6336C20.3807 16.6971 20.467 16.7286 20.5531 16.7286C20.6469 16.7286 20.7406 16.6912 20.8098 16.6174C22.3428 14.9809 24.7653 11.9025 23.7657 9.67198Z" fill="#84BE51"/>
<path d="M23.7657 9.67198C23.1807 8.36633 21.4755 7.55239 18.8344 7.3182C16.8616 7.14322 14.3811 7.30751 12.1397 7.75714C11.9225 7.22548 11.6922 6.7153 11.4528 6.23937C11.3656 6.06589 11.1543 5.99595 10.9808 6.08323C10.8073 6.17042 10.7374 6.38178 10.8247 6.55522C11.743 8.38128 12.5256 10.7278 12.9181 12.832C12.9497 13.0011 13.0973 13.1192 13.2633 13.1192C13.2847 13.1192 13.3064 13.1172 13.3282 13.1132C13.5191 13.0775 13.6449 12.8939 13.6094 12.7031C13.4893 12.0593 13.3334 11.3933 13.1491 10.7258C16.955 9.37123 19.8086 10.0083 19.837 10.0148C20.0259 10.0595 20.2153 9.94222 20.2598 9.75327C20.3044 9.56427 20.1872 9.37498 19.9982 9.33045C19.8728 9.30083 16.9432 8.63881 12.9527 10.0494C12.7852 9.4993 12.5997 8.95311 12.4002 8.42216C14.546 8.00333 16.8984 7.85239 18.7723 8.01851C20.4266 8.16519 22.5244 8.621 23.1241 9.95942C23.7326 11.3173 22.702 13.5689 20.2966 16.1367C20.1639 16.2784 20.1712 16.5009 20.3129 16.6336C20.3807 16.6971 20.467 16.7286 20.5531 16.7286C20.6469 16.7286 20.7406 16.6912 20.8098 16.6174C22.3428 14.9809 24.7653 11.9025 23.7657 9.67198Z" stroke="#84BE51" stroke-width="0.4" mask="url(#path-2-outside-2_91_3253)"/>
<mask id="path-3-outside-3_91_3253" maskUnits="userSpaceOnUse" x="13.2451" y="11.9329" width="6" height="4" fill="black">
<rect fill="white" x="13.2451" y="11.9329" width="6" height="4"/>
<path d="M19.0032 13.1295C18.9176 12.9552 18.7069 12.8833 18.5326 12.969L14.4417 14.9795C14.2675 15.0651 14.1956 15.2759 14.2812 15.4501C14.3424 15.5745 14.4672 15.6467 14.597 15.6467C14.6491 15.6467 14.7019 15.6351 14.7518 15.6106L18.8427 13.6001C19.017 13.5144 19.0888 13.3037 19.0032 13.1295Z"/>
</mask>
<path d="M19.0032 13.1295C18.9176 12.9552 18.7069 12.8833 18.5326 12.969L14.4417 14.9795C14.2675 15.0651 14.1956 15.2759 14.2812 15.4501C14.3424 15.5745 14.4672 15.6467 14.597 15.6467C14.6491 15.6467 14.7019 15.6351 14.7518 15.6106L18.8427 13.6001C19.017 13.5144 19.0888 13.3037 19.0032 13.1295Z" fill="#84BE51"/>
<path d="M19.0032 13.1295C18.9176 12.9552 18.7069 12.8833 18.5326 12.969L14.4417 14.9795C14.2675 15.0651 14.1956 15.2759 14.2812 15.4501C14.3424 15.5745 14.4672 15.6467 14.597 15.6467C14.6491 15.6467 14.7019 15.6351 14.7518 15.6106L18.8427 13.6001C19.017 13.5144 19.0888 13.3037 19.0032 13.1295Z" stroke="#84BE51" stroke-width="0.4" mask="url(#path-3-outside-3_91_3253)"/>
<mask id="path-4-outside-4_91_3253" maskUnits="userSpaceOnUse" x="1.80078" y="4.18921" width="5" height="14" fill="black">
<rect fill="white" x="1.80078" y="4.18921" width="5" height="14"/>
<path d="M5.57157 5.26144C5.4173 5.14355 5.19666 5.17308 5.07877 5.32726C5.0438 5.37301 4.21538 6.47016 3.56368 8.47313C2.96617 10.3095 2.41215 13.292 3.16576 17.0724C3.19909 17.2396 3.34595 17.3553 3.5102 17.3552C3.53298 17.3552 3.55609 17.353 3.57929 17.3484C3.7697 17.3104 3.89331 17.1253 3.85534 16.9349C3.13459 13.3197 3.65682 10.4737 4.22185 8.72288C4.83498 6.82308 5.62974 5.76437 5.63771 5.75387C5.75527 5.5996 5.72569 5.37924 5.57157 5.26144Z"/>
</mask>
<path d="M5.57157 5.26144C5.4173 5.14355 5.19666 5.17308 5.07877 5.32726C5.0438 5.37301 4.21538 6.47016 3.56368 8.47313C2.96617 10.3095 2.41215 13.292 3.16576 17.0724C3.19909 17.2396 3.34595 17.3553 3.5102 17.3552C3.53298 17.3552 3.55609 17.353 3.57929 17.3484C3.7697 17.3104 3.89331 17.1253 3.85534 16.9349C3.13459 13.3197 3.65682 10.4737 4.22185 8.72288C4.83498 6.82308 5.62974 5.76437 5.63771 5.75387C5.75527 5.5996 5.72569 5.37924 5.57157 5.26144Z" fill="#84BE51"/>
<path d="M5.57157 5.26144C5.4173 5.14355 5.19666 5.17308 5.07877 5.32726C5.0438 5.37301 4.21538 6.47016 3.56368 8.47313C2.96617 10.3095 2.41215 13.292 3.16576 17.0724C3.19909 17.2396 3.34595 17.3553 3.5102 17.3552C3.53298 17.3552 3.55609 17.353 3.57929 17.3484C3.7697 17.3104 3.89331 17.1253 3.85534 16.9349C3.13459 13.3197 3.65682 10.4737 4.22185 8.72288C4.83498 6.82308 5.62974 5.76437 5.63771 5.75387C5.75527 5.5996 5.72569 5.37924 5.57157 5.26144Z" stroke="#84BE51" stroke-width="0.4" mask="url(#path-4-outside-4_91_3253)"/>
<mask id="path-5-outside-5_91_3253" maskUnits="userSpaceOnUse" x="8.02832" y="10.0244" width="4" height="10" fill="black">
<rect fill="white" x="8.02832" y="10.0244" width="4" height="10"/>
<path d="M11.5963 14.1389C11.527 12.5148 11.057 11.2986 11.037 11.2476C10.9662 11.0669 10.7625 10.978 10.5818 11.0485C10.4011 11.1192 10.3118 11.323 10.3822 11.5038C10.3867 11.5154 10.8339 12.6785 10.8947 14.1902C10.9748 16.179 10.3825 17.805 9.13433 19.0231C8.99539 19.1587 8.99267 19.3812 9.12828 19.5202C9.19723 19.5908 9.28854 19.6263 9.37995 19.6263C9.4685 19.6263 9.55709 19.593 9.62548 19.5263C11.0077 18.1773 11.6892 16.3144 11.5963 14.1389Z"/>
</mask>
<path d="M11.5963 14.1389C11.527 12.5148 11.057 11.2986 11.037 11.2476C10.9662 11.0669 10.7625 10.978 10.5818 11.0485C10.4011 11.1192 10.3118 11.323 10.3822 11.5038C10.3867 11.5154 10.8339 12.6785 10.8947 14.1902C10.9748 16.179 10.3825 17.805 9.13433 19.0231C8.99539 19.1587 8.99267 19.3812 9.12828 19.5202C9.19723 19.5908 9.28854 19.6263 9.37995 19.6263C9.4685 19.6263 9.55709 19.593 9.62548 19.5263C11.0077 18.1773 11.6892 16.3144 11.5963 14.1389Z" fill="#84BE51"/>
<path d="M11.5963 14.1389C11.527 12.5148 11.057 11.2986 11.037 11.2476C10.9662 11.0669 10.7625 10.978 10.5818 11.0485C10.4011 11.1192 10.3118 11.323 10.3822 11.5038C10.3867 11.5154 10.8339 12.6785 10.8947 14.1902C10.9748 16.179 10.3825 17.805 9.13433 19.0231C8.99539 19.1587 8.99267 19.3812 9.12828 19.5202C9.19723 19.5908 9.28854 19.6263 9.37995 19.6263C9.4685 19.6263 9.55709 19.593 9.62548 19.5263C11.0077 18.1773 11.6892 16.3144 11.5963 14.1389Z" stroke="#84BE51" stroke-width="0.4" mask="url(#path-5-outside-5_91_3253)"/>
<mask id="path-6-outside-6_91_3253" maskUnits="userSpaceOnUse" x="6.80078" y="6.78821" width="3" height="7" fill="black">
<rect fill="white" x="6.80078" y="6.78821" width="3" height="7"/>
<path d="M8.50371 8.12721C8.49682 7.93315 8.33426 7.78291 8.13987 7.78835C7.94585 7.79524 7.79412 7.95813 7.80101 8.1522L7.96296 12.7076C7.96976 12.8974 8.12571 13.0467 8.3141 13.0467C8.31832 13.0467 8.32259 13.0466 8.3268 13.0465C8.52082 13.0396 8.67255 12.8767 8.66566 12.6827L8.50371 8.12721Z"/>
</mask>
<path d="M8.50371 8.12721C8.49682 7.93315 8.33426 7.78291 8.13987 7.78835C7.94585 7.79524 7.79412 7.95813 7.80101 8.1522L7.96296 12.7076C7.96976 12.8974 8.12571 13.0467 8.3141 13.0467C8.31832 13.0467 8.32259 13.0466 8.3268 13.0465C8.52082 13.0396 8.67255 12.8767 8.66566 12.6827L8.50371 8.12721Z" fill="#84BE51"/>
<path d="M8.50371 8.12721C8.49682 7.93315 8.33426 7.78291 8.13987 7.78835C7.94585 7.79524 7.79412 7.95813 7.80101 8.1522L7.96296 12.7076C7.96976 12.8974 8.12571 13.0467 8.3141 13.0467C8.31832 13.0467 8.32259 13.0466 8.3268 13.0465C8.52082 13.0396 8.67255 12.8767 8.66566 12.6827L8.50371 8.12721Z" stroke="#84BE51" stroke-width="0.4" mask="url(#path-6-outside-6_91_3253)"/>
<mask id="path-7-outside-7_91_3253" maskUnits="userSpaceOnUse" x="2.86328" y="17.3569" width="4" height="4" fill="black">
<rect fill="white" x="2.86328" y="17.3569" width="4" height="4"/>
<path d="M5.95721 19.5104C5.16347 19.2216 4.4866 18.4848 4.47549 18.4725C4.34532 18.3287 4.12313 18.3174 3.97913 18.4476C3.83508 18.5778 3.82383 18.8001 3.954 18.9441C3.98621 18.9798 4.75355 19.8207 5.71678 20.1711C5.75649 20.1856 5.79703 20.1924 5.83697 20.1924C5.9806 20.1924 6.11541 20.1037 6.16735 19.961C6.23377 19.7785 6.13964 19.5768 5.95721 19.5104Z"/>
</mask>
<path d="M5.95721 19.5104C5.16347 19.2216 4.4866 18.4848 4.47549 18.4725C4.34532 18.3287 4.12313 18.3174 3.97913 18.4476C3.83508 18.5778 3.82383 18.8001 3.954 18.9441C3.98621 18.9798 4.75355 19.8207 5.71678 20.1711C5.75649 20.1856 5.79703 20.1924 5.83697 20.1924C5.9806 20.1924 6.11541 20.1037 6.16735 19.961C6.23377 19.7785 6.13964 19.5768 5.95721 19.5104Z" fill="#84BE51"/>
<path d="M5.95721 19.5104C5.16347 19.2216 4.4866 18.4848 4.47549 18.4725C4.34532 18.3287 4.12313 18.3174 3.97913 18.4476C3.83508 18.5778 3.82383 18.8001 3.954 18.9441C3.98621 18.9798 4.75355 19.8207 5.71678 20.1711C5.75649 20.1856 5.79703 20.1924 5.83697 20.1924C5.9806 20.1924 6.11541 20.1037 6.16735 19.961C6.23377 19.7785 6.13964 19.5768 5.95721 19.5104Z" stroke="#84BE51" stroke-width="0.4" mask="url(#path-7-outside-7_91_3253)"/>
<mask id="path-8-outside-8_91_3253" maskUnits="userSpaceOnUse" x="7.16113" y="12.7461" width="2" height="2" fill="black">
<rect fill="white" x="7.16113" y="12.7461" width="2" height="2"/>
<path d="M8.5127 13.7461C8.31854 13.7461 8.16113 13.9035 8.16113 14.0977V14.1296C8.16113 14.3238 8.31854 14.4811 8.5127 14.4811C8.70685 14.4811 8.86426 14.3238 8.86426 14.1296V14.0977C8.86426 13.9035 8.70685 13.7461 8.5127 13.7461Z"/>
</mask>
<path d="M8.5127 13.7461C8.31854 13.7461 8.16113 13.9035 8.16113 14.0977V14.1296C8.16113 14.3238 8.31854 14.4811 8.5127 14.4811C8.70685 14.4811 8.86426 14.3238 8.86426 14.1296V14.0977C8.86426 13.9035 8.70685 13.7461 8.5127 13.7461Z" fill="#84BE51"/>
<path d="M8.5127 13.7461C8.31854 13.7461 8.16113 13.9035 8.16113 14.0977V14.1296C8.16113 14.3238 8.31854 14.4811 8.5127 14.4811C8.70685 14.4811 8.86426 14.3238 8.86426 14.1296V14.0977C8.86426 13.9035 8.70685 13.7461 8.5127 13.7461Z" stroke="#84BE51" stroke-width="0.4" mask="url(#path-8-outside-8_91_3253)"/>
<mask id="path-9-outside-9_91_3253" maskUnits="userSpaceOnUse" x="6.29492" y="13.6724" width="2" height="2" fill="black">
<rect fill="white" x="6.29492" y="13.6724" width="2" height="2"/>
<path d="M7.64648 14.6724C7.45233 14.6724 7.29492 14.8297 7.29492 15.0239V15.0558C7.29492 15.2501 7.45233 15.4074 7.64648 15.4074C7.84064 15.4074 7.99805 15.2501 7.99805 15.0558V15.0239C7.99805 14.8298 7.84069 14.6724 7.64648 14.6724Z"/>
</mask>
<path d="M7.64648 14.6724C7.45233 14.6724 7.29492 14.8297 7.29492 15.0239V15.0558C7.29492 15.2501 7.45233 15.4074 7.64648 15.4074C7.84064 15.4074 7.99805 15.2501 7.99805 15.0558V15.0239C7.99805 14.8298 7.84069 14.6724 7.64648 14.6724Z" fill="#84BE51"/>
<path d="M7.64648 14.6724C7.45233 14.6724 7.29492 14.8297 7.29492 15.0239V15.0558C7.29492 15.2501 7.45233 15.4074 7.64648 15.4074C7.84064 15.4074 7.99805 15.2501 7.99805 15.0558V15.0239C7.99805 14.8298 7.84069 14.6724 7.64648 14.6724Z" stroke="#84BE51" stroke-width="0.4" mask="url(#path-9-outside-9_91_3253)"/>
<mask id="path-10-outside-10_91_3253" maskUnits="userSpaceOnUse" x="7.41309" y="15.247" width="2" height="2" fill="black">
<rect fill="white" x="7.41309" y="15.247" width="2" height="2"/>
<path d="M8.76465 16.247C8.57049 16.247 8.41309 16.4044 8.41309 16.5986V16.6305C8.41309 16.8247 8.57049 16.9821 8.76465 16.9821C8.9588 16.9821 9.11621 16.8247 9.11621 16.6305V16.5986C9.11621 16.4044 8.9588 16.247 8.76465 16.247Z"/>
</mask>
<path d="M8.76465 16.247C8.57049 16.247 8.41309 16.4044 8.41309 16.5986V16.6305C8.41309 16.8247 8.57049 16.9821 8.76465 16.9821C8.9588 16.9821 9.11621 16.8247 9.11621 16.6305V16.5986C9.11621 16.4044 8.9588 16.247 8.76465 16.247Z" fill="#84BE51"/>
<path d="M8.76465 16.247C8.57049 16.247 8.41309 16.4044 8.41309 16.5986V16.6305C8.41309 16.8247 8.57049 16.9821 8.76465 16.9821C8.9588 16.9821 9.11621 16.8247 9.11621 16.6305V16.5986C9.11621 16.4044 8.9588 16.247 8.76465 16.247Z" stroke="#84BE51" stroke-width="0.4" mask="url(#path-10-outside-10_91_3253)"/>
</g>
<defs>
<clipPath id="clip0_91_3253">
<rect width="24" height="24" fill="white"/>
</clipPath>
</defs>
</svg>
