<svg width="18" height="16" viewBox="0 0 18 16" fill="none" xmlns="http://www.w3.org/2000/svg">
<mask id="path-1-outside-1_0_1" maskUnits="userSpaceOnUse" x="-0.200195" y="-0.421875" width="18" height="17" fill="black">
<rect fill="white" x="-0.200195" y="-0.421875" width="18" height="17"/>
<path d="M12.1904 0.578125C10.8931 0.578125 9.6724 1.11672 8.7998 2.06513C7.92721 1.11669 6.70655 0.578125 5.40918 0.578125C2.86755 0.578125 0.799805 2.64584 0.799805 5.1875C0.799805 6.69597 1.36337 8.26356 2.47487 9.84672C2.54927 9.95269 2.69546 9.97825 2.80137 9.90388C2.9073 9.8295 2.9329 9.68331 2.85852 9.57738C1.80349 8.07463 1.26855 6.59766 1.26855 5.1875C1.26855 2.90434 3.12602 1.04688 5.40918 1.04688C6.65784 1.04688 7.82749 1.60241 8.61824 2.57103C8.66277 2.62556 8.72943 2.65719 8.7998 2.65719C8.87018 2.65719 8.93687 2.62556 8.98137 2.57103C9.77212 1.60238 10.9418 1.04688 12.1904 1.04688C14.4736 1.04688 16.3311 2.90462 16.3311 5.18803C16.3305 7.94531 14.2632 10.455 12.529 12.0748C10.8982 13.5981 9.24696 14.6421 8.79984 14.9143C8.19793 14.5474 6.21321 13.5797 4.21462 11.1128C4.13312 11.0122 3.98549 10.9968 3.88496 11.0783C3.78437 11.1598 3.7689 11.3074 3.8504 11.4079C6.14727 14.2429 8.64934 15.3712 8.68243 15.3903C8.71874 15.4114 8.75927 15.4219 8.7998 15.4219C8.84034 15.4219 8.8809 15.4114 8.91721 15.3903C8.93683 15.379 10.9038 14.2327 12.8421 12.4238C13.9849 11.3573 14.8965 10.271 15.5518 9.19509C16.3796 7.83572 16.7996 6.48756 16.7998 5.18809C16.7998 2.64616 14.7321 0.578125 12.1904 0.578125Z"/>
</mask>
<path d="M12.1904 0.578125C10.8931 0.578125 9.6724 1.11672 8.7998 2.06513C7.92721 1.11669 6.70655 0.578125 5.40918 0.578125C2.86755 0.578125 0.799805 2.64584 0.799805 5.1875C0.799805 6.69597 1.36337 8.26356 2.47487 9.84672C2.54927 9.95269 2.69546 9.97825 2.80137 9.90388C2.9073 9.8295 2.9329 9.68331 2.85852 9.57738C1.80349 8.07463 1.26855 6.59766 1.26855 5.1875C1.26855 2.90434 3.12602 1.04688 5.40918 1.04688C6.65784 1.04688 7.82749 1.60241 8.61824 2.57103C8.66277 2.62556 8.72943 2.65719 8.7998 2.65719C8.87018 2.65719 8.93687 2.62556 8.98137 2.57103C9.77212 1.60238 10.9418 1.04688 12.1904 1.04688C14.4736 1.04688 16.3311 2.90462 16.3311 5.18803C16.3305 7.94531 14.2632 10.455 12.529 12.0748C10.8982 13.5981 9.24696 14.6421 8.79984 14.9143C8.19793 14.5474 6.21321 13.5797 4.21462 11.1128C4.13312 11.0122 3.98549 10.9968 3.88496 11.0783C3.78437 11.1598 3.7689 11.3074 3.8504 11.4079C6.14727 14.2429 8.64934 15.3712 8.68243 15.3903C8.71874 15.4114 8.75927 15.4219 8.7998 15.4219C8.84034 15.4219 8.8809 15.4114 8.91721 15.3903C8.93683 15.379 10.9038 14.2327 12.8421 12.4238C13.9849 11.3573 14.8965 10.271 15.5518 9.19509C16.3796 7.83572 16.7996 6.48756 16.7998 5.18809C16.7998 2.64616 14.7321 0.578125 12.1904 0.578125Z" fill="#8C3213"/>
<path d="M12.1904 0.578125C10.8931 0.578125 9.6724 1.11672 8.7998 2.06513C7.92721 1.11669 6.70655 0.578125 5.40918 0.578125C2.86755 0.578125 0.799805 2.64584 0.799805 5.1875C0.799805 6.69597 1.36337 8.26356 2.47487 9.84672C2.54927 9.95269 2.69546 9.97825 2.80137 9.90388C2.9073 9.8295 2.9329 9.68331 2.85852 9.57738C1.80349 8.07463 1.26855 6.59766 1.26855 5.1875C1.26855 2.90434 3.12602 1.04688 5.40918 1.04688C6.65784 1.04688 7.82749 1.60241 8.61824 2.57103C8.66277 2.62556 8.72943 2.65719 8.7998 2.65719C8.87018 2.65719 8.93687 2.62556 8.98137 2.57103C9.77212 1.60238 10.9418 1.04688 12.1904 1.04688C14.4736 1.04688 16.3311 2.90462 16.3311 5.18803C16.3305 7.94531 14.2632 10.455 12.529 12.0748C10.8982 13.5981 9.24696 14.6421 8.79984 14.9143C8.19793 14.5474 6.21321 13.5797 4.21462 11.1128C4.13312 11.0122 3.98549 10.9968 3.88496 11.0783C3.78437 11.1598 3.7689 11.3074 3.8504 11.4079C6.14727 14.2429 8.64934 15.3712 8.68243 15.3903C8.71874 15.4114 8.75927 15.4219 8.7998 15.4219C8.84034 15.4219 8.8809 15.4114 8.91721 15.3903C8.93683 15.379 10.9038 14.2327 12.8421 12.4238C13.9849 11.3573 14.8965 10.271 15.5518 9.19509C16.3796 7.83572 16.7996 6.48756 16.7998 5.18809C16.7998 2.64616 14.7321 0.578125 12.1904 0.578125Z" stroke="#8C3213" stroke-width="0.6" mask="url(#path-1-outside-1_0_1)"/>
</svg>
