<svg width="18" height="18" viewBox="0 0 18 18" fill="none" xmlns="http://www.w3.org/2000/svg">
<path d="M3.93069 12.7635C5.08907 14.3046 6.2995 15.3823 7.22544 16.0778C7.68846 16.4256 8.08051 16.6779 8.35962 16.845C8.49919 16.9285 8.61049 16.9907 8.68827 17.0329C8.72716 17.0539 8.75759 17.0699 8.77883 17.081L8.80322 17.0937C8.80514 17.0947 8.80652 17.0954 8.80746 17.0959C8.86648 17.1317 8.93293 17.15 9 17.15C9.06867 17.15 9.13675 17.1308 9.19684 17.0933L9.19688 17.0932C9.22084 17.0783 11.1987 15.8356 13.1487 13.8741C14.2989 12.7171 15.2195 11.5356 15.8826 10.362C16.7206 8.87874 17.1497 7.40037 17.15 5.96909C17.15 3.15709 15.0255 0.85 12.3906 0.85C11.103 0.85 9.89061 1.4025 9 2.37632C8.10939 1.40247 6.89698 0.85 5.60938 0.85C2.97451 0.85 0.85 3.15673 0.85 5.96842C0.85 7.63001 1.42601 9.34774 2.54937 11.0724L2.67506 10.9906L16.3813 5.96899C16.3807 8.87723 14.3527 11.5448 12.6228 13.2865C11.0888 14.8309 9.53594 15.9159 8.99881 16.2738C8.94676 16.2409 8.88789 16.2046 8.82271 16.1643C8.02642 15.6722 6.28805 14.5979 4.53472 12.2652L4.41481 12.3553L4.53472 12.2652C4.40229 12.089 4.15448 12.0584 3.9865 12.2051L3.98649 12.2051C3.82524 12.3459 3.80315 12.5939 3.93069 12.7635ZM3.93069 12.7635L4.04841 12.675L3.9307 12.7635C3.9307 12.7635 3.93069 12.7635 3.93069 12.7635ZM8.69888 3.23872L8.69886 3.23871C7.93485 2.22993 6.80845 1.65526 5.60938 1.65526C3.41946 1.65526 1.61875 3.57947 1.61875 5.96842C1.61875 7.45239 2.14096 9.01635 3.18441 10.6184C3.29998 10.7958 3.26337 11.0421 3.0921 11.1718L8.69888 3.23872ZM8.69888 3.23872C8.77019 3.33285 8.88012 3.39101 9 3.39101M8.69888 3.23872L9 3.39101M9 3.39101C9.11985 3.39101 9.22985 3.33287 9.30116 3.23868M9 3.39101L9.30116 3.23868M9.30116 3.23868C10.0652 2.22989 11.1916 1.65526 12.3906 1.65526M9.30116 3.23868C9.30115 3.23869 9.30115 3.2387 9.30114 3.2387L12.3906 1.65526M12.3906 1.65526C14.5805 1.65526 16.3812 3.57974 16.3813 5.96897L12.3906 1.65526Z" fill="#8C3213" stroke="#8C3213" stroke-width="0.3"/>
</svg>
