<svg width="20" height="18" viewBox="0 0 20 18" fill="none" xmlns="http://www.w3.org/2000/svg">
<path d="M1.2021 7.5961C1.28393 7.58282 1.36675 7.57669 1.44961 7.57777H15.5592L15.2515 7.43467C14.9508 7.29233 14.6772 7.09861 14.443 6.86227L10.4864 2.90558C9.96525 2.40814 9.87769 1.6079 10.2789 1.00952C10.7458 0.371882 11.6412 0.233434 12.2788 0.700339C12.3304 0.738082 12.3793 0.779222 12.4253 0.823494L19.5803 7.97844C20.1394 8.53698 20.1399 9.44302 19.5814 10.0022C19.581 10.0025 19.5806 10.0029 19.5803 10.0033L12.4253 17.1582C11.8657 17.7163 10.9597 17.715 10.4016 17.1554C10.3577 17.1114 10.3167 17.0645 10.2789 17.0151C9.87769 16.4168 9.96525 15.6165 10.4864 15.1191L14.4359 11.1552C14.6458 10.9451 14.8872 10.7688 15.1514 10.6329L15.5807 10.4397H1.52836C0.79735 10.4669 0.155999 9.95625 0.0186684 9.23771C-0.10784 8.4576 0.421985 7.72265 1.2021 7.5961Z" fill="#84BE51"/>
</svg>
